<svg xmlns="http://www.w3.org/2000/svg" viewBox="0 0 90.5 91.83"><defs><style>.cls-1{fill:#330b55;}.cls-2{fill:#fff;}.cls-3{fill:#a12626;}.cls-4{fill:#7a4732;}.cls-5{fill:#5c3e33;}.cls-6{fill:#bababa;}.cls-7{fill:#ababab;}.cls-8{fill:#291b17;}.cls-9{fill:#452f27;}.cls-10{fill:#525252;}.cls-11{opacity:0.15;}</style></defs><g id="Layer_2" data-name="Layer 2"><g id="Layer_1-2" data-name="Layer 1"><path class="cls-1" d="M37.28,90.3l15.93-42s1.47-4,.32-5.18L48,37.52c-1.15-1.17-5.1.32-5.1.32L1.51,54a2.59,2.59,0,0,0-.77,4.17l0,0A2.48,2.48,0,0,0,2.5,59l27.62.78a1.56,1.56,0,0,1,1.51,1.54l.77,28A2.58,2.58,0,0,0,33.14,91l0,0A2.51,2.51,0,0,0,37.28,90.3Z"/><path class="cls-2" d="M42.86,69.63,52.2,45s.87-2.35.19-3l-3.22-3.27c-.68-.69-3,.19-3,.19l-24.3,9.48a1.51,1.51,0,0,0-.44,2.44l0,0a1.45,1.45,0,0,0,1,.45l16.21.45a.94.94,0,0,1,.89.91L40,69.05a1.5,1.5,0,0,0,.43,1l0,0A1.47,1.47,0,0,0,42.86,69.63Z"/><path class="cls-3" d="M35.78,59.06,32.3,55.52a1,1,0,0,1,0-1.4l1.87-1.9a1,1,0,0,1,1.38,0L39,55.75a1,1,0,0,1,0,1.41l-1.87,1.9A1,1,0,0,1,35.78,59.06Z"/><path class="cls-4" d="M47.39,46.66l-2.87-2.92a1,1,0,0,1,0-1.4L45.88,41a1,1,0,0,1,1.39,0l2.87,2.92a1,1,0,0,1,0,1.41l-1.36,1.38A1,1,0,0,1,47.39,46.66Z"/><path class="cls-2" d="M48.88,45.21l-2.94-3a.77.77,0,0,1,.13-1h0a.74.74,0,0,1,1-.13l3,3a.76.76,0,0,1-.13,1v0A.76.76,0,0,1,48.88,45.21Z"/><path class="cls-2" d="M47.59,46.52l-3-3a.72.72,0,0,1,.09-1h0a.71.71,0,0,1,1-.1l2.94,3a.73.73,0,0,1-.09,1h0A.69.69,0,0,1,47.59,46.52Z"/><path class="cls-4" d="M41.67,52.47l-2.88-2.92a1,1,0,0,1,0-1.41l1.37-1.38a1,1,0,0,1,1.38,0l2.88,2.92a1,1,0,0,1,0,1.4l-1.36,1.39A1,1,0,0,1,41.67,52.47Z"/><path class="cls-2" d="M43.16,51l-2.94-3a.76.76,0,0,1,.13-1h0a.74.74,0,0,1,1-.14l2.94,3a.77.77,0,0,1-.12,1h0A.73.73,0,0,1,43.16,51Z"/><path class="cls-2" d="M41.86,52.33l-2.94-3a.73.73,0,0,1,.09-1h0a.71.71,0,0,1,1-.09l3,3a.73.73,0,0,1-.09,1h0A.72.72,0,0,1,41.86,52.33Z"/><polygon class="cls-5" points="82.45 11.1 79.57 8.17 48.76 38.25 52.8 42.36 82.45 11.1"/><polygon class="cls-6" points="54.66 39.9 51.19 36.38 51.39 36.17 54.86 39.7 54.66 39.9"/><polygon class="cls-6" points="59.82 33.89 57.11 31.14 57.31 30.94 60.02 33.69 59.82 33.89"/><polygon class="cls-6" points="65.36 28.27 62.65 25.52 62.85 25.32 65.56 28.07 65.36 28.27"/><polygon class="cls-6" points="70.9 22.65 68.19 19.9 68.39 19.69 71.1 22.44 70.9 22.65"/><polygon class="cls-6" points="76.44 17.03 73.73 14.28 73.93 14.07 76.64 16.82 76.44 17.03"/><polygon class="cls-6" points="81.98 11.4 79.27 8.65 79.47 8.45 82.18 11.2 81.98 11.4"/><polygon class="cls-7" points="32.52 56.47 32.41 56.36 79.74 8.34 79.84 8.45 32.52 56.47"/><polygon class="cls-7" points="33 56.97 32.89 56.86 80.22 8.84 80.33 8.95 33 56.97"/><polygon class="cls-7" points="33.49 57.46 33.38 57.35 80.71 9.33 80.82 9.44 33.49 57.46"/><polygon class="cls-7" points="33.97 57.95 33.87 57.84 81.19 9.82 81.3 9.93 33.97 57.95"/><polygon class="cls-7" points="34.46 58.45 34.35 58.34 81.68 10.32 81.79 10.43 34.46 58.45"/><polygon class="cls-7" points="34.95 58.94 34.84 58.83 82.17 10.81 82.28 10.92 34.95 58.94"/><polygon class="cls-5" points="35.53 60.71 30.67 55.78 31.25 55.19 36.11 60.12 35.53 60.71"/><polygon class="cls-8" points="83 10.54 80.12 7.61 79.57 8.17 82.45 11.1 83 10.54"/><path class="cls-9" d="M89.84.07,82.56,3.29a2.53,2.53,0,0,0-1.27,1.53L80.12,7.61,83,10.54l2.75-1.19a2.53,2.53,0,0,0,1.51-1.29L90.44.68C90.66.22,90.29-.16,89.84.07Z"/><circle class="cls-10" cx="46.78" cy="41.89" r="0.17"/><path class="cls-10" d="M47.39,42.5a.17.17,0,1,1,0-.24A.16.16,0,0,1,47.39,42.5Z"/><path class="cls-10" d="M47.88,43a.17.17,0,1,1,0-.24A.18.18,0,0,1,47.88,43Z"/><path class="cls-10" d="M48.36,43.48a.17.17,0,1,1,0-.24A.18.18,0,0,1,48.36,43.48Z"/><path class="cls-10" d="M48.85,44a.17.17,0,1,1,0-.24A.16.16,0,0,1,48.85,44Z"/><circle class="cls-10" cx="49.22" cy="44.35" r="0.17"/><circle class="cls-10" cx="45.45" cy="43.24" r="0.17"/><path class="cls-10" d="M46.05,43.86a.18.18,0,0,1-.24,0,.2.2,0,0,1,0-.25.18.18,0,0,1,.24,0A.18.18,0,0,1,46.05,43.86Z"/><path class="cls-10" d="M46.54,44.35a.17.17,0,1,1,0-.24A.16.16,0,0,1,46.54,44.35Z"/><path class="cls-10" d="M47,44.84a.18.18,0,0,1-.24,0,.18.18,0,0,1,0-.25.18.18,0,0,1,.24,0A.2.2,0,0,1,47,44.84Z"/><path class="cls-10" d="M47.51,45.34a.18.18,0,0,1-.24,0,.2.2,0,0,1,0-.25.18.18,0,0,1,.24,0A.18.18,0,0,1,47.51,45.34Z"/><circle class="cls-10" cx="47.88" cy="45.71" r="0.17"/><path class="cls-10" d="M41.18,47.81a.16.16,0,0,1-.24,0,.18.18,0,0,1,0-.24.17.17,0,1,1,.24.24Z"/><path class="cls-10" d="M41.67,48.31a.18.18,0,0,1-.24,0,.18.18,0,0,1,0-.25.18.18,0,0,1,.24,0A.2.2,0,0,1,41.67,48.31Z"/><path class="cls-10" d="M42.15,48.8a.16.16,0,0,1-.24,0,.18.18,0,0,1,0-.24.17.17,0,1,1,.24.24Z"/><circle class="cls-10" cx="42.51" cy="49.16" r="0.17"/><circle class="cls-10" cx="43.01" cy="49.67" r="0.17"/><path class="cls-10" d="M43.61,50.28a.16.16,0,0,1-.24,0,.18.18,0,0,1,0-.24.17.17,0,0,1,.24.24Z"/><path class="cls-10" d="M39.85,49.17a.17.17,0,1,1,0-.24A.18.18,0,0,1,39.85,49.17Z"/><path class="cls-10" d="M40.33,49.66a.16.16,0,0,1-.24,0,.18.18,0,0,1,0-.24.17.17,0,0,1,.24.24Z"/><path class="cls-10" d="M40.82,50.16a.18.18,0,0,1-.24,0,.18.18,0,0,1,0-.25.18.18,0,0,1,.24,0A.2.2,0,0,1,40.82,50.16Z"/><path class="cls-10" d="M41.3,50.64a.17.17,0,1,1,0-.24A.18.18,0,0,1,41.3,50.64Z"/><path class="cls-10" d="M41.79,51.14a.17.17,0,1,1,0-.24A.16.16,0,0,1,41.79,51.14Z"/><circle class="cls-10" cx="42.16" cy="51.52" r="0.17"/><path class="cls-2" d="M33.07,55.84l0,0a.28.28,0,0,1,0-.4L35.45,53a.28.28,0,0,1,.4,0l0,0a.3.3,0,0,1,0,.41l-2.4,2.43A.28.28,0,0,1,33.07,55.84Z"/><path class="cls-2" d="M33.55,56.33v0a.28.28,0,0,1,0-.4l2.39-2.44a.28.28,0,0,1,.4,0l0,0a.3.3,0,0,1,0,.41L34,56.33A.28.28,0,0,1,33.55,56.33Z"/><path class="cls-2" d="M34,56.83v0a.28.28,0,0,1,0-.4L36.42,54a.28.28,0,0,1,.4,0l0,0a.3.3,0,0,1,0,.41l-2.4,2.43A.28.28,0,0,1,34,56.83Z"/><path class="cls-2" d="M34.53,57.32l0,0a.28.28,0,0,1,0-.4l2.4-2.43a.27.27,0,0,1,.4,0h0a.3.3,0,0,1,0,.41l-2.4,2.43A.28.28,0,0,1,34.53,57.32Z"/><path class="cls-2" d="M35,57.81h0a.3.3,0,0,1,0-.41L37.39,55a.28.28,0,0,1,.4,0l0,0a.28.28,0,0,1,0,.4l-2.4,2.43A.27.27,0,0,1,35,57.81Z"/><path class="cls-2" d="M35.5,58.31l0,0a.3.3,0,0,1,0-.41l2.4-2.43a.28.28,0,0,1,.4,0l0,0a.28.28,0,0,1,0,.4l-2.4,2.44A.28.28,0,0,1,35.5,58.31Z"/><path class="cls-11" d="M37.28,90.3l15.93-42s1.47-4,.32-5.18l-.73-.73L82.45,11.1l.55-.56h0l2.75-1.19a2.53,2.53,0,0,0,1.51-1.29L90.44.68A.46.46,0,0,0,90.36.1L31.15,60.17a1.58,1.58,0,0,1,.48,1.1l.77,28A2.58,2.58,0,0,0,33.14,91l0,0A2.51,2.51,0,0,0,37.28,90.3Z"/></g></g></svg>