<svg xmlns="http://www.w3.org/2000/svg" viewBox="0 0 92.65 56.72"><defs><style>.cls-1{fill:#330b55;}.cls-2{fill:#5c3e33;}.cls-3{fill:#754537;}.cls-4{fill:#1f1f1f;}.cls-5{fill:#bf7a21;}.cls-6{fill:#fff;}.cls-7{fill:#d9d9d9;}.cls-8{opacity:0.15;}</style></defs><g id="Layer_2" data-name="Layer 2"><g id="Layer_1-2" data-name="Layer 1"><path class="cls-1" d="M84.37,0,0,10.37c3.3,27.68,13.47,49.2,39.19,46,20.88-2.56,44.89-20.53,52.19-42.1Z"/><path class="cls-2" d="M38.49,54.47l0,0a1.41,1.41,0,0,1-2-.25L5.55,14a1.45,1.45,0,0,1,.24-2l0,0a1.41,1.41,0,0,1,2,.25L38.73,52.45A1.46,1.46,0,0,1,38.49,54.47Z"/><path class="cls-3" d="M57,23.22a5.61,5.61,0,1,1-6.24-5A5.67,5.67,0,0,1,57,23.22Z"/><path class="cls-4" d="M55.93,23.35a4.56,4.56,0,1,1-5.07-4A4.61,4.61,0,0,1,55.93,23.35Z"/><path class="cls-5" d="M22.37,42a3.2,3.2,0,1,1-3.56-2.83A3.24,3.24,0,0,1,22.37,42Z"/><path class="cls-5" d="M15,33a2.16,2.16,0,0,1-1.86,2.4A2.16,2.16,0,1,1,15,33Z"/><polygon class="cls-6" points="37.23 52.95 37.11 52.78 89.73 15.35 89.85 15.52 37.23 52.95"/><polygon class="cls-6" points="32.9 47.32 32.79 47.14 88.78 13.44 88.89 13.61 32.9 47.32"/><polygon class="cls-6" points="28.57 41.69 28.48 41.51 87.84 11.53 87.93 11.71 28.57 41.69"/><polygon class="cls-6" points="24.24 36.06 24.16 35.87 86.89 9.62 86.96 9.81 24.24 36.06"/><polygon class="cls-6" points="19.91 30.43 19.84 30.24 85.94 7.71 86 7.91 19.91 30.43"/><polygon class="cls-6" points="15.58 24.8 15.53 24.61 84.99 5.8 85.04 6 15.58 24.8"/><polygon class="cls-6" points="11.25 19.17 11.21 18.97 84.04 3.9 84.08 4.1 11.25 19.17"/><polygon class="cls-6" points="6.92 13.54 6.89 13.34 83.08 1.99 83.11 2.2 6.92 13.54"/><path class="cls-7" d="M7.43,13a.68.68,0,0,1-.12.94.65.65,0,0,1-.92-.12.66.66,0,1,1,1-.82Z"/><path class="cls-7" d="M11.75,18.66a.68.68,0,0,1-.12.94.64.64,0,0,1-.92-.12.68.68,0,0,1,.11-.94A.67.67,0,0,1,11.75,18.66Z"/><path class="cls-7" d="M16.07,24.29a.67.67,0,0,1-.11.94.66.66,0,0,1-.93-.11.68.68,0,0,1,.12-.94A.64.64,0,0,1,16.07,24.29Z"/><path class="cls-7" d="M20.4,29.93a.67.67,0,0,1-.12.93.64.64,0,0,1-.92-.11.67.67,0,0,1,.11-.94A.65.65,0,0,1,20.4,29.93Z"/><path class="cls-7" d="M24.72,35.56a.68.68,0,0,1-.12.94.66.66,0,0,1-.92-.12.69.69,0,0,1,.11-.94A.66.66,0,0,1,24.72,35.56Z"/><path class="cls-7" d="M29,41.19a.67.67,0,0,1-.11.94A.66.66,0,0,1,28,42a.68.68,0,0,1,.12-.94A.65.65,0,0,1,29,41.19Z"/><path class="cls-7" d="M33.37,46.82a.68.68,0,0,1-.12.94.64.64,0,0,1-.92-.12.66.66,0,1,1,1-.82Z"/><path class="cls-7" d="M37.69,52.45a.68.68,0,0,1-.11.94.66.66,0,0,1-.93-.11.69.69,0,0,1,.11-.94A.66.66,0,0,1,37.69,52.45Z"/><path class="cls-8" d="M92.65,14.31h0L7.08,35.05C13,49.55,23.21,58.53,40.46,56.41c20.88-2.56,44.89-20.53,52.19-42.1Z"/></g></g></svg>