<svg xmlns="http://www.w3.org/2000/svg" viewBox="0 0 91.17 92.39"><defs><style>.cls-1{fill:#bababa;}.cls-2{fill:#330b55;}.cls-3{fill:#754537;}.cls-4{fill:#5c3e33;}.cls-5{fill:#1f1f1f;}.cls-6{fill:#bf7a21;}.cls-7{fill:#ffad42;}.cls-8{fill:#422d25;}.cls-9{fill:#fff;}.cls-10{opacity:0.15;}</style></defs><g id="Layer_2" data-name="Layer 2"><g id="Layer_1-2" data-name="Layer 1"><path class="cls-1" d="M76,8.13a1.23,1.23,0,0,0-.43-1.46,1.16,1.16,0,0,0-1.65.27,1.23,1.23,0,0,0,.33,1.68,1.15,1.15,0,0,0,1.47-.09l1.08.78L77,8.9Z"/><path class="cls-1" d="M78.31,5a1.23,1.23,0,0,0-.42-1.45,1.16,1.16,0,0,0-1.65.26,1.24,1.24,0,0,0,.32,1.69A1.16,1.16,0,0,0,78,5.4l1.07.78.28-.41Z"/><path class="cls-1" d="M80.82,1.69A1.23,1.23,0,0,0,80.39.23a1.17,1.17,0,0,0-1.65.26,1.24,1.24,0,0,0,.33,1.69,1.15,1.15,0,0,0,1.47-.09l1.08.78.27-.41Z"/><path class="cls-2" d="M45.79,67.26c2.36-2.35,7-2,10.3-6.8,5.56-11.11-4.73-20.18-4.73-20.18s-9-10.44-19.89-4.8c-4.78,3.3-4.39,8.05-6.71,10.45-3.15,3.26-12,.4-20.22,9-11.86,12.27,3.11,27,4.51,28.32S24.86,99.81,37,87.78C45.39,79.38,42.58,70.46,45.79,67.26Z"/><path class="cls-1" d="M84.56,15.68a1.18,1.18,0,0,0-1.44-.4l-.78-1.08-.4.29.78,1.07a1.22,1.22,0,0,0-.06,1.5,1.18,1.18,0,1,0,1.9-1.38Z"/><path class="cls-1" d="M87.65,13.28a1.19,1.19,0,0,0-1.44-.41l-.78-1.07-.4.28.79,1.08a1.19,1.19,0,0,0-.06,1.5,1.17,1.17,0,1,0,1.89-1.38Z"/><path class="cls-1" d="M90.93,10.74a1.19,1.19,0,0,0-1.44-.41l-.78-1.07-.4.29.78,1.07a1.22,1.22,0,0,0,1.61,1.8A1.19,1.19,0,0,0,90.93,10.74Z"/><path class="cls-3" d="M42,49.69a7.39,7.39,0,0,0-10.56-.12,7.66,7.66,0,0,0,.32,10.7,7.4,7.4,0,0,0,10.56.12A7.66,7.66,0,0,0,42,49.69Z"/><polygon class="cls-4" points="79.68 16.29 75 11.54 35.76 49.44 42.33 56.1 79.68 16.29"/><path class="cls-5" d="M40.57,51.12A5.36,5.36,0,0,0,32.91,51a5.54,5.54,0,0,0,.23,7.76,5.36,5.36,0,0,0,7.66.09A5.56,5.56,0,0,0,40.57,51.12Z"/><polygon class="cls-6" points="24.12 78.9 13.29 67.92 15.63 65.54 26.46 76.52 24.12 78.9"/><path class="cls-7" d="M90.07,4.57,88.74,2.35,86.55,1a3.17,3.17,0,0,0-4.2.81L75,11.54l4.68,4.75,9.59-7.46A3.28,3.28,0,0,0,90.07,4.57ZM78.87,9.84h0a1,1,0,0,1-.08-1.37l4.51-5.15a1,1,0,0,1,1.35-.09v0a1,1,0,0,1,.08,1.36L80.22,9.76A.94.94,0,0,1,78.87,9.84Zm3.87,2.65a.94.94,0,0,1-1.34-.08l0,0A1,1,0,0,1,81.46,11l5.09-4.58a.93.93,0,0,1,1.34.08h0a1,1,0,0,1-.08,1.37Z"/><polygon class="cls-1" points="77.99 17.73 73.59 13.27 73.84 13.01 78.24 17.47 77.99 17.73"/><polygon class="cls-1" points="71.18 24.64 66.78 20.17 67.04 19.91 71.44 24.38 71.18 24.64"/><polygon class="cls-1" points="64.38 31.54 59.98 27.08 60.23 26.82 64.63 31.28 64.38 31.54"/><polygon class="cls-1" points="57.57 38.45 53.17 33.98 53.43 33.72 57.83 38.19 57.57 38.45"/><polygon class="cls-1" points="50.77 45.35 46.37 40.89 46.62 40.63 51.02 45.09 50.77 45.35"/><polygon class="cls-1" points="43.96 52.25 39.56 47.79 39.82 47.53 44.22 51.99 43.96 52.25"/><polygon class="cls-8" points="80.45 15.69 75.59 10.76 75 11.54 79.68 16.29 80.45 15.69"/><polygon class="cls-9" points="18.32 69.97 18.14 69.78 75.27 11.82 75.45 12 18.32 69.97"/><polygon class="cls-9" points="19.11 70.77 18.93 70.59 76.06 12.62 76.24 12.8 19.11 70.77"/><polygon class="cls-9" points="19.9 71.57 19.72 71.39 76.85 13.42 77.03 13.6 19.9 71.57"/><polygon class="cls-9" points="20.69 72.37 20.51 72.19 77.64 14.22 77.82 14.4 20.69 72.37"/><polygon class="cls-9" points="21.48 73.17 21.3 72.99 78.43 15.02 78.61 15.2 21.48 73.17"/><polygon class="cls-9" points="22.26 73.97 22.09 73.79 79.22 15.82 79.4 16 22.26 73.97"/><polygon class="cls-4" points="23.42 76.63 15.53 68.63 16.26 67.88 24.15 75.88 23.42 76.63"/><path class="cls-10" d="M45.79,67.26c2.36-2.35,7-2,10.3-6.8,3.55-7.1.63-13.36-1.94-17L79.68,16.29l.77-.6L82,14.51l.76,1.05a1.22,1.22,0,0,0-.06,1.5,1.18,1.18,0,1,0,1.9-1.38,1.18,1.18,0,0,0-1.44-.4l-.77-1.07,2.7-2.1.77,1.05a1.19,1.19,0,0,0-.06,1.5,1.17,1.17,0,1,0,1.89-1.38,1.19,1.19,0,0,0-1.44-.41l-.77-1.06,2.88-2.24.77,1a1.22,1.22,0,0,0,1.61,1.8,1.22,1.22,0,0,0-1.21-2.09l-.78-1.07.56-.43a3.28,3.28,0,0,0,.8-4.26L88.74,2.36,9.05,83.21C10.38,84.66,24.88,99.8,37,87.78,45.39,79.38,42.58,70.46,45.79,67.26ZM82.74,12.49a.94.94,0,0,1-1.34-.08l0,0A1,1,0,0,1,81.46,11l5.09-4.58a.93.93,0,0,1,1.34.08h0a1,1,0,0,1-.08,1.37Z"/></g></g></svg>