<svg xmlns="http://www.w3.org/2000/svg" viewBox="0 0 89.55 91.45"><defs><style>.cls-1{fill:#bababa;}.cls-2{fill:#330b55;}.cls-3{fill:#4f4f4f;}.cls-4{fill:#7a5244;}.cls-5{fill:#c7c7c7;}.cls-6{fill:#291b17;}.cls-7{fill:#4f352d;}.cls-8{fill:#1f1f1f;}.cls-9{fill:#bf7a21;}.cls-10{fill:#fff;}.cls-11{opacity:0.15;}</style></defs><g id="Layer_2" data-name="Layer 2"><g id="Layer_1-2" data-name="Layer 1"><path class="cls-1" d="M84.2,17.67a1.9,1.9,0,0,0,2.73,0,2,2,0,0,0,0-2.77,1.91,1.91,0,0,0-2.41-.26L83,13.06l-.57.58,1.56,1.59A2,2,0,0,0,84.2,17.67Z"/><path class="cls-1" d="M73.15,6.47a1.9,1.9,0,0,0-2.73,0,2,2,0,0,0,0,2.77,1.91,1.91,0,0,0,2.41.26l1.57,1.59L75,10.5,73.41,8.91A2,2,0,0,0,73.15,6.47Z"/><path class="cls-1" d="M77.48.57a1.92,1.92,0,0,0-2.73,0,2,2,0,0,0,0,2.77,1.92,1.92,0,0,0,2.41.27l1.56,1.58.58-.58L77.73,3A2,2,0,0,0,77.48.57Z"/><path class="cls-2" d="M41,45.74c-9-6.78-22.91-5-32.4,4.63C-1.71,60.82-2.92,76.53,5.9,85.47s24.3,7.72,34.59-2.72C50,73.12,51.74,59,45.06,49.87Z"/><path class="cls-3" d="M25.73,62a10.37,10.37,0,0,1-.3,14.19c-.09.1-.19.17-.28.26l.29.34a10,10,0,0,0,14.32,0,10.37,10.37,0,0,0,0-14.53A10,10,0,0,0,25.73,62Z"/><polygon class="cls-4" points="74.33 20.31 45.13 49.95 40.91 45.67 70.12 16.03 74.33 20.31"/><polygon class="cls-5" points="46.58 48.47 42.36 44.19 41.75 44.82 45.97 49.1 46.58 48.47"/><polygon class="cls-5" points="53.6 41.35 49.38 37.07 48.77 37.7 52.98 41.97 53.6 41.35"/><polygon class="cls-5" points="60.62 34.23 56.4 29.95 55.79 30.57 60 34.85 60.62 34.23"/><polygon class="cls-5" points="67.64 27.11 63.42 22.83 62.8 23.45 67.02 27.73 67.64 27.11"/><polygon class="cls-5" points="73.95 20.7 69.74 16.42 69.12 17.04 73.34 21.32 73.95 20.7"/><polygon class="cls-6" points="75.47 19.17 74.33 20.31 70.12 16.03 71.25 14.89 75.47 19.17"/><path class="cls-7" d="M71.25,14.89l4.21,4.28A146,146,0,0,0,89,8.08a1.76,1.76,0,0,0,0-2.49L84.63,1.11a1.7,1.7,0,0,0-2.46,0A147.55,147.55,0,0,0,71.25,14.89Z"/><path class="cls-4" d="M27.92,63.13a4.71,4.71,0,0,1,0,6.6,4.55,4.55,0,0,1-6.51,0,4.71,4.71,0,0,1,0-6.6A4.55,4.55,0,0,1,27.92,63.13Z"/><path class="cls-8" d="M27.11,64a3.54,3.54,0,0,1,0,5,3.42,3.42,0,0,1-4.89,0,3.54,3.54,0,0,1,0-5A3.42,3.42,0,0,1,27.11,64Z"/><polygon class="cls-9" points="21.18 79.92 18.39 82.75 8.58 72.8 11.37 69.97 21.18 79.92"/><polygon class="cls-4" points="18.77 79.52 17.99 80.31 10.99 73.2 11.77 72.41 18.77 79.52"/><polygon class="cls-10" points="13.83 74.5 70.79 16.72 70.65 16.58 13.7 74.36 13.83 74.5"/><polygon class="cls-10" points="16.86 77.58 73.81 19.79 73.68 19.65 16.72 77.44 16.86 77.58"/><polygon class="cls-10" points="15.34 76.03 72.29 18.24 72.16 18.1 15.2 75.89 15.34 76.03"/><ellipse class="cls-1" cx="78.61" cy="14.78" rx="0.65" ry="0.66"/><ellipse class="cls-1" cx="79.78" cy="10.51" rx="0.65" ry="0.66"/><ellipse class="cls-1" cx="80.58" cy="6.5" rx="0.65" ry="0.66"/><path class="cls-11" d="M5.83,85.4a.46.46,0,0,0,.07.07c8.81,8.94,24.3,7.72,34.59-2.72C50,73.12,51.74,59,45.06,49.87l.07.08,29.2-29.64,1.13-1.14s3.23-2.31,7-5.4l1.44,1.46a2,2,0,0,0,.26,2.44,1.9,1.9,0,0,0,2.73,0,2,2,0,0,0,0-2.77,1.91,1.91,0,0,0-2.41-.26l-1.38-1.4c2-1.6,4-3.39,5.87-5.16a1.76,1.76,0,0,0,0-2.49L86.77,3.28Z"/></g></g></svg>