<svg xmlns="http://www.w3.org/2000/svg" viewBox="0 0 96.67 70.34"><defs><style>.cls-1{fill:#2e1f1a;}.cls-2{fill:#4f352c;}.cls-3{fill:#650ba5;}.cls-4{fill:#330b55;}.cls-5{opacity:0.15;}.cls-6{fill:#593c32;}.cls-7{fill:#3d2922;}.cls-8{fill:#bababa;}.cls-9{fill:#ffad42;}.cls-10{fill:#fb8e21;}.cls-11{fill:#785043;}.cls-12{fill:#36241e;}.cls-13{fill:#3b3b3b;}</style></defs><g id="Layer_2" data-name="Layer 2"><g id="Layer_1-2" data-name="Layer 1"><polygon class="cls-1" points="40.99 69.61 39.99 69.61 55.55 39.34 56.55 39.34 40.99 69.61"/><polygon class="cls-1" points="32.71 69.61 31.72 69.61 47.28 39.34 48.27 39.34 32.71 69.61"/><path class="cls-2" d="M78.86,39.34A4.66,4.66,0,0,1,82,44.12h.35V65.7h3.93V44.12h.35a4.66,4.66,0,0,1,3.1-4.78Z"/><path class="cls-3" d="M7.29,25.31V29a2.21,2.21,0,0,1-2.2,2.23H3a3,3,0,0,0-3,3.06v5.12H96.67V25.31Z"/><rect class="cls-4" x="73.63" y="25.31" width="23.04" height="14.1"/><rect class="cls-4" x="73" y="25.31" width="23.04" height="14.1"/><path class="cls-2" d="M10.22,39.34a4.66,4.66,0,0,1,3.1,4.78h.35V65.7H17.6V44.12H18a4.66,4.66,0,0,1,3.1-4.78Z"/><path class="cls-2" d="M51.13,39.34a4.66,4.66,0,0,1,3.1,4.78h.35V65.7h3.93V44.12h.35A4.66,4.66,0,0,1,62,39.34Z"/><path class="cls-5" d="M81.83,42.77h4.9a4.5,4.5,0,0,1,3-3.43H78.86A4.5,4.5,0,0,1,81.83,42.77Z"/><path class="cls-5" d="M13.18,42.77h4.91a4.48,4.48,0,0,1,3-3.43H10.22A4.5,4.5,0,0,1,13.18,42.77Z"/><path class="cls-5" d="M54.09,42.77H59a4.48,4.48,0,0,1,3-3.43H51.13A4.48,4.48,0,0,1,54.09,42.77Z"/><polygon class="cls-6" points="40.73 39.41 40.73 67.36 32.22 67.36 32.22 39.41 29.86 39.41 29.86 70.34 43.1 70.34 43.1 39.41 40.73 39.41"/><rect class="cls-7" x="32.22" y="39.41" width="1.65" height="27.95"/><rect class="cls-7" x="43.1" y="39.41" width="1.65" height="30.93"/><path class="cls-6" d="M93.7,16.05c0-2.23-3.82-3.72-10.63-3.72H81.76c-6.09,0-8-2.06-4.24-4.59l.18-.12A9.25,9.25,0,0,0,80.43,5h.45V3.58h0C80.81,1.43,77.2,0,70.66,0h-9.8c-10.1,0-23.3,3.4-29.48,7.59L7.29,23.93v1.38h3.47V23.93H84.94l5.37-3.64.12-.08a10.09,10.09,0,0,0,2.7-2.49l.57-.14V16.05Z"/><path class="cls-4" d="M83.07,13.71H81.76c-6.09,0-8-2.05-4.24-4.58L77.7,9c6.23-4.2,3.08-7.62-7-7.62h-9.8c-10.1,0-23.3,3.4-29.48,7.6L7.29,25.31H84.94l5.37-3.64.12-.08C96.84,17.24,93.55,13.71,83.07,13.71Z"/><polygon class="cls-8" points="59.43 1.98 58.32 1.98 67.19 25.27 68.31 25.27 59.43 1.98"/><path class="cls-9" d="M35.05,68.87H32.31a1.45,1.45,0,0,0-1.44,1.46h4.18Z"/><path class="cls-10" d="M37.35,68.87H34.6a1.44,1.44,0,0,0-1.43,1.46h4.18Z"/><path class="cls-9" d="M40,68.87H37.25a1.44,1.44,0,0,0-1.43,1.46H40Z"/><rect class="cls-8" x="5.27" y="30.14" width="49.13" height="1.09"/><path class="cls-11" d="M54.68,25.31V29a2.21,2.21,0,0,1-2.19,2.23H50.41a3,3,0,0,0-3,3.06v5.12H57.8V25.31Z"/><path class="cls-12" d="M57.77,66.57H55.29a.72.72,0,0,1-.71-.73V65.7h3.91v.14A.73.73,0,0,1,57.77,66.57Z"/><ellipse class="cls-9" cx="56.54" cy="68.14" rx="2.03" ry="2.06"/><path class="cls-10" d="M57.68,68.14A1.14,1.14,0,1,1,56.54,67,1.14,1.14,0,0,1,57.68,68.14Z"/><path class="cls-13" d="M56.94,68.14a.4.4,0,1,1-.4-.4A.4.4,0,0,1,56.94,68.14Z"/><path class="cls-12" d="M85.51,66.57H83a.72.72,0,0,1-.71-.73V65.7h3.9v.14A.72.72,0,0,1,85.51,66.57Z"/><ellipse class="cls-9" cx="84.28" cy="68.14" rx="2.03" ry="2.06"/><ellipse class="cls-10" cx="84.28" cy="68.14" rx="1.13" ry="1.15"/><path class="cls-13" d="M84.68,68.14a.4.4,0,0,1-.4.4.4.4,0,0,1,0-.8A.4.4,0,0,1,84.68,68.14Z"/><path class="cls-12" d="M16.86,66.57H14.38a.72.72,0,0,1-.71-.73V65.7h3.91v.14A.73.73,0,0,1,16.86,66.57Z"/><ellipse class="cls-9" cx="15.63" cy="68.14" rx="2.03" ry="2.06"/><ellipse class="cls-10" cx="15.63" cy="68.14" rx="1.13" ry="1.15"/><path class="cls-13" d="M16,68.14a.4.4,0,1,1-.4-.4A.4.4,0,0,1,16,68.14Z"/></g></g></svg>