<svg xmlns="http://www.w3.org/2000/svg" viewBox="0 0 70.12 56.18"><defs><style>.cls-1{fill:#bababa;}.cls-2{fill:#4f4f4f;}.cls-3,.cls-5{opacity:0.15;}.cls-4{fill:#ffad42;}</style></defs><g id="Layer_2" data-name="Layer 2"><g id="Layer_1-2" data-name="Layer 1"><path class="cls-1" d="M64.1,56.18H6A6,6,0,0,1,.64,52.85a6.12,6.12,0,0,1,.54-6.34L30.24,6.75a5.93,5.93,0,0,1,9.6,0L68.9,46.51,66,48.69l-29-39.76a2.35,2.35,0,0,0-3.8,0L4.08,48.69a2.4,2.4,0,0,0-.21,2.51A2.33,2.33,0,0,0,6,52.52H64.1Z"/><rect class="cls-2" x="34.19" y="2.88" width="1.73" height="5.4"/><rect class="cls-1" x="34.58" y="0.21" width="0.96" height="2.67"/><g class="cls-3"><rect x="35.06" y="52.52" width="29.04" height="3.67"/><path d="M39.84,6.75a5.91,5.91,0,0,0-3.92-2.38V2.88h-.38V.21h-.48V8.28h.86V8.15a2.36,2.36,0,0,1,1,.78L66,48.69l2.91-2.18Z"/></g><polygon class="cls-1" points="33.5 38.3 70.12 1.12 69.01 0 32.39 37.17 33.5 38.3"/><path class="cls-4" d="M28,46l5.91-6c.35-.36.14-1.15-.47-1.77l-1-1c-.61-.62-1.39-.83-1.74-.47l-5.91,6c-.35.36-.14,1.15.47,1.77l1,1C26.86,46.14,27.64,46.35,28,46Z"/><path class="cls-5" d="M69.57.56l.55.56L33.5,38.3l-.07-.07c.61.62.82,1.41.47,1.77L28,46c-.35.36-1.13.15-1.74-.47L25.76,45Z"/></g></g></svg>