<svg xmlns="http://www.w3.org/2000/svg" viewBox="0 0 68.1 73.48"><defs><style>.cls-1{fill:#fbc732;}.cls-2{fill:#fb8e21;}.cls-3{fill:#330b55;}.cls-4{fill:#a6a6a6;}.cls-5{opacity:0.15;}</style></defs><g id="Layer_2" data-name="Layer 2"><g id="Layer_1-2" data-name="Layer 1"><rect class="cls-1" x="18.13" y="14.44" width="33.28" height="1.89"/><path class="cls-2" d="M47.74,73.48H21.62A4.73,4.73,0,0,1,17,68.66V68H52.37v.68A4.73,4.73,0,0,1,47.74,73.48Z"/><path class="cls-3" d="M58,13a6.64,6.64,0,0,0,6.78-6.48A6.64,6.64,0,0,0,58,0a6.85,6.85,0,0,0-5.51,2.72l0,0C38.9,19.19,82.13,60.21,34.05,60.21s-4.85-41-18.4-57.47l0,0A6.88,6.88,0,0,0,10.12,0,6.64,6.64,0,0,0,3.34,6.48,6.64,6.64,0,0,0,10.12,13c17-.53-46.54,57.26,23.93,57.26S41,12.43,58,13Z"/><polygon class="cls-4" points="24.67 59.43 24.11 59.32 24.11 16.32 24.67 16.32 24.67 59.43"/><polygon class="cls-4" points="29.82 60.05 29.26 60.01 29.26 16.32 29.82 16.32 29.82 60.05"/><rect class="cls-4" x="34.4" y="16.32" width="0.56" height="43.89"/><polygon class="cls-4" points="40.11 60.01 39.55 60.05 39.55 16.32 40.11 16.32 40.11 60.01"/><polygon class="cls-4" points="45.26 59.32 44.7 59.43 44.7 16.32 45.26 16.32 45.26 59.32"/><path class="cls-5" d="M58,13a6.64,6.64,0,0,0,6.78-6.48A6.64,6.64,0,0,0,58,0a6.85,6.85,0,0,0-5.51,2.72l0,0c-2.59,3.15-3.1,7.2-2.57,11.7H34.05v1.88h16.1c3.26,18.81,21.5,43.89-16.1,43.89V73.48H47.11a4.73,4.73,0,0,0,4.63-4.82v-.14C92.32,59,42.7,12.48,58,13Z"/></g></g></svg>