<svg xmlns="http://www.w3.org/2000/svg" viewBox="0 0 190.2 516.22"><defs><style>.cls-1{fill:#330b55;}.cls-2{fill:#1d0036;}.cls-3{fill:#6f4234;}.cls-4{fill:#995e4f;}.cls-5{fill:#4c281e;}.cls-6{fill:#160034;}.cls-7{fill:#c98d65;}.cls-8{fill:#72370f;}.cls-9{fill:#3f3a40;}.cls-10{fill:#201600;}.cls-11{fill:#fff;}.cls-12{fill:#db7733;}.cls-13{fill:#6b3730;}.cls-14{fill:#4f2119;}.cls-15{fill:#35120d;}.cls-16{fill:#8c3d33;}</style></defs><g id="Layer_2" data-name="Layer 2"><g id="Ñëîé_1" data-name="Ñëîé 1"><path class="cls-1" d="M178.52,388.31c0-5.17,4.43-8.12,4.43-8.12v-5.91s-4.43,6.65-22.88-3.69-8.13-54.63-1.48-62.75,17,0,17,0v-4.43l-5.17-11.07c-5.17-11.07,13.29-47.25-7.38-76s-115.17-28.79-135.84,0-2.21,65-7.38,76l-5.17,11.07v4.43s10.34-8.12,17,0,17,52.42-1.47,62.75-22.89,3.69-22.89,3.69v5.91s4.43,2.95,4.43,8.12S-46,521.63,95.1,516C236.23,521.63,178.52,393.47,178.52,388.31Z"/><path class="cls-2" d="M178.52,388.31c0-5.17,4.43-8.12,4.43-8.12v-5.91s-4.43,6.65-22.88-3.69-8.13-54.63-1.48-62.75,17,0,17,0v-4.43l-5.17-11.07c-5.17-11.07,13.29-47.25-7.38-76-11.46-16-45.59-23.06-77.27-21.33,25.47,1.39,49.35,8.5,58.57,21.33,20.67,28.79,2.86,54.56,8,65.63s4.54,17.79-2.1,25.91-17,52.42,1.47,62.75,8.1,19.69,8.1,24.86,55.06,120.36-74.07,120.74c3,0,6.12,0,9.35-.15C236.23,521.63,178.52,393.47,178.52,388.31Z"/><path class="cls-3" d="M101.86,406.91H74.57c-2.86,0-4.95,2.36-4.25,4.8l8.43,29.39c6.37,22.18,9.12,33.7,9.12,56.59v16.86h14.46V497.69c0-22.89,2.75-34.41,9.12-56.6l8.43-29.38c.7-2.44-1.39-4.8-4.24-4.8Z"/><path class="cls-4" d="M82.1,441.1l-8.43-29.39c-.7-2.44,1.39-4.8,4.24-4.8H74.57c-2.86,0-4.95,2.36-4.25,4.8l8.43,29.39c6.37,22.18,9.12,33.7,9.12,56.59v16.86h3.34V497.69C91.21,474.8,88.46,463.28,82.1,441.1Z"/><path class="cls-5" d="M115.8,406.93a3.35,3.35,0,0,1,0,1.63L107.32,438c-6.37,22.19-9.12,33.71-9.12,56.59v16.87H87.87v3.14h14.46V497.69c0-22.89,2.75-34.41,9.12-56.6l8.43-29.38C120.57,409.32,118.56,407,115.8,406.93Z"/><path class="cls-6" d="M124.14,500.28c-7.38-6.4-36.18-2.22-36.18-2.22s4.43-35.93-22.14-41.59c-21.51-4.58-48.65-.29-63,12.34C10.11,495.74,33.91,518.46,95.1,516a176.45,176.45,0,0,0,32.58-1.45C128.57,511.6,129.66,505.06,124.14,500.28Z"/><path class="cls-7" d="M114.05,366.41H76.15a3.82,3.82,0,0,1-3.81-3.81h0a3.82,3.82,0,0,1,3.81-3.82h37.9a3.82,3.82,0,0,1,3.81,3.82h0A3.82,3.82,0,0,1,114.05,366.41Z"/><path class="cls-8" d="M111.17,195.47a170.07,170.07,0,0,0-32.85.07L76,315.59h38.2Z"/><path class="cls-3" d="M127.57,54.77c-5.31,0-6.33,2.2-6.53,5.26H102.16V65.2H121c.2,3.06,1.22,5.26,6.53,5.26,6.71,0,12.14-3.52,12.14-7.85S134.28,54.77,127.57,54.77Z"/><path class="cls-5" d="M128.31,68.43c-5.31,0-6.33-2.2-6.53-5.26H102.9V60h-.74V65.2H121c.2,3.06,1.22,5.26,6.53,5.26,6.32,0,11.5-3.12,12.09-7.1C137.92,66.32,133.5,68.43,128.31,68.43Z"/><path class="cls-4" d="M131.49,56.23s-4.18-1.23-5.66,0,10.28,4.69,11.44,3.8S133.91,56.71,131.49,56.23Z"/><path class="cls-3" d="M127.57,35.78c-5.31,0-6.33,2.2-6.53,5.26H102.16v5.17H121c.2,3.06,1.22,5.26,6.53,5.26,6.71,0,12.14-3.51,12.14-7.84S134.28,35.78,127.57,35.78Z"/><path class="cls-5" d="M128.31,49.44c-5.31,0-6.33-2.2-6.53-5.26H102.9V41h-.74v5.17H121c.2,3.06,1.22,5.26,6.53,5.26,6.32,0,11.5-3.12,12.09-7.1C137.92,47.33,133.5,49.44,128.31,49.44Z"/><path class="cls-4" d="M131.49,37.24s-4.18-1.23-5.66,0,10.28,4.69,11.44,3.8S133.91,37.72,131.49,37.24Z"/><path class="cls-3" d="M62.63,61.41c5.31,0,6.33,2.2,6.53,5.26H88v5.17H69.16c-.2,3.06-1.22,5.26-6.53,5.26-6.7,0-12.14-3.51-12.14-7.84S55.93,61.41,62.63,61.41Z"/><path class="cls-5" d="M61.9,75.07c5.3,0,6.32-2.2,6.52-5.26H87.3V66.67H88v5.17H69.16c-.2,3.06-1.22,5.26-6.53,5.26-6.32,0-11.5-3.12-12.08-7.1C52.28,73,56.7,75.07,61.9,75.07Z"/><path class="cls-4" d="M58.71,62.87s4.18-1.23,5.66,0-10.27,4.69-11.44,3.8S56.29,63.35,58.71,62.87Z"/><path class="cls-3" d="M62.63,42.43c5.31,0,6.33,2.19,6.53,5.26H88v5.16H69.16c-.2,3.06-1.22,5.26-6.53,5.26-6.7,0-12.14-3.51-12.14-7.84S55.93,42.43,62.63,42.43Z"/><path class="cls-5" d="M61.9,56.08c5.3,0,6.32-2.2,6.52-5.26H87.3V47.69H88v5.16H69.16c-.2,3.06-1.22,5.26-6.53,5.26-6.32,0-11.5-3.11-12.08-7.1C52.28,54,56.7,56.08,61.9,56.08Z"/><path class="cls-4" d="M58.71,43.89s4.18-1.23,5.66,0-10.27,4.69-11.44,3.8S56.29,44.36,58.71,43.89Z"/><polygon class="cls-9" points="104.84 32.48 83.8 32.48 78.72 313.38 111.49 313.38 104.84 32.48"/><path class="cls-10" d="M70,343.86a4.33,4.33,0,0,0,.49-5.27,5.34,5.34,0,0,0-5.08-1.37,9.69,9.69,0,0,0-2.58,1.28,10,10,0,0,0-2.15,1.89,9.36,9.36,0,0,0-1.94,5.17c-.34,3.87.42,8,.85,12.18a112,112,0,0,1,.83,12.73,95.09,95.09,0,0,1-.78,12.8,39.17,39.17,0,0,1-3.66,12.64,11,11,0,0,1-4.91,5,9.19,9.19,0,0,1-6.88,0,8.76,8.76,0,0,1-4.89-4.5,22.78,22.78,0,0,1-1.17-3.12c-.35-1.12-.62-2.11-1-3.56l-.08-.37a2,2,0,1,1,3.25,1,3.73,3.73,0,0,0-.88,2.7,5.91,5.91,0,0,0,.88,2.81,7.11,7.11,0,0,0,4.35,3.56A6.88,6.88,0,0,0,50,399a8.5,8.5,0,0,0,3.2-4.32,26.38,26.38,0,0,0,1.37-5.75c.29-2,.45-4,.56-6.05.23-4.08.26-8.22.27-12.36s-.1-8.24-.18-12.44c0-2.09-.08-4.21,0-6.37a34.63,34.63,0,0,1,.67-6.57A11.92,11.92,0,0,1,59.12,339a12.4,12.4,0,0,1,2.75-2A13.2,13.2,0,0,1,65,335.7a6.72,6.72,0,0,1,6.43,2.06,4,4,0,0,1,.5.82c.11.28.21.55.3.83.17.55.31,1.1.43,1.66l.71,3.59,0,.23a2,2,0,1,1-4,.8A2.08,2.08,0,0,1,70,343.86Z"/><path class="cls-10" d="M120.24,343.86a4.33,4.33,0,0,1-.49-5.27,5.34,5.34,0,0,1,5.08-1.37,9.55,9.55,0,0,1,2.58,1.28,10,10,0,0,1,2.15,1.89,9.36,9.36,0,0,1,1.94,5.17c.34,3.87-.41,8-.85,12.18a112,112,0,0,0-.83,12.73,95.09,95.09,0,0,0,.78,12.8,39.42,39.42,0,0,0,3.66,12.64,11,11,0,0,0,4.92,5,9.17,9.17,0,0,0,6.87,0,8.76,8.76,0,0,0,4.89-4.5,22.78,22.78,0,0,0,1.17-3.12c.35-1.12.63-2.11,1-3.56l.08-.37a2,2,0,1,0-3.25,1,3.73,3.73,0,0,1,.88,2.7,5.8,5.8,0,0,1-.88,2.81,7.11,7.11,0,0,1-4.35,3.56,6.88,6.88,0,0,1-5.38-.47,8.55,8.55,0,0,1-3.2-4.32,27,27,0,0,1-1.37-5.75c-.29-2-.45-4-.55-6.05-.23-4.08-.27-8.22-.28-12.36s.1-8.24.18-12.44c0-2.09.08-4.21,0-6.37a34.63,34.63,0,0,0-.67-6.57,11.92,11.92,0,0,0-3.22-6.11,12.17,12.17,0,0,0-2.75-2,13,13,0,0,0-3.16-1.26,6.72,6.72,0,0,0-6.43,2.06,4.49,4.49,0,0,0-.5.82c-.11.28-.21.55-.3.83-.17.55-.31,1.1-.43,1.66l-.71,3.59,0,.23a2,2,0,0,0,4,.8A2.08,2.08,0,0,0,120.24,343.86Z"/><path class="cls-11" d="M84,415.72a.84.84,0,0,1-.83-.8l-2-52.29,6-330.16a.83.83,0,1,1,1.66,0l-6,330.11,2,52.25a.83.83,0,0,1-.8.86Z"/><path class="cls-11" d="M90.26,415.72a.84.84,0,0,1-.83-.82l-.81-52.29,3-330.13a.83.83,0,0,1,.83-.83h0a.84.84,0,0,1,.82.84l-3,330.11.81,52.27a.83.83,0,0,1-.81.85Z"/><path class="cls-11" d="M105.42,415.72h0a.83.83,0,0,1-.8-.86l2-52.3-6-330.06a.83.83,0,1,1,1.66,0l6,330.11-2,52.34A.84.84,0,0,1,105.42,415.72Z"/><path class="cls-11" d="M99.15,415.72h0a.84.84,0,0,1-.82-.85l.81-52.29-3-330.09a.83.83,0,0,1,.82-.84h0a.84.84,0,0,1,.83.83l3,330.11L100,414.9A.83.83,0,0,1,99.15,415.72Z"/><path class="cls-12" d="M67.24,202.28S45.83,204.12,37,214.46s-15.12,28.42-12.9,39.12,15.13-19.93,24.73-29.9,19.11-10.33,22.83-15.13S71.41,201.3,67.24,202.28Z"/><path class="cls-13" d="M59.51,458.38s-22.11-3.22-36.82,3.35c-17.44,7.79-15.27,16.54-12.61,16.65,2.43.09,11.12-6.08,22.37-8.86C48.37,465.58,67,464,59.51,458.38Z"/><path class="cls-14" d="M106.07,14.89h-1.81a7.37,7.37,0,0,0-4.46-3.62V5.41A5.42,5.42,0,0,0,89,5.41v5.86a7.34,7.34,0,0,0-4.46,3.62H82.69a5.42,5.42,0,0,0,0,10.83h.93l.18,6.76h21l-.16-6.76h1.39a5.42,5.42,0,1,0,0-10.83Z"/><path class="cls-15" d="M106.07,14.89h-1.81a7.37,7.37,0,0,0-4.46-3.62V5.41A5.4,5.4,0,0,0,89.68,2.78a5.39,5.39,0,0,1,9,4v5.85a7.31,7.31,0,0,1,4.46,3.62H105a5.41,5.41,0,0,1,5.41,5.41,5.33,5.33,0,0,1-.71,2.63,5.36,5.36,0,0,0,1.78-4A5.42,5.42,0,0,0,106.07,14.89Z"/><polygon class="cls-15" points="103.61 25.65 103.75 32.48 104.84 32.48 104.71 25.65 103.61 25.65"/><path class="cls-16" d="M90.15,3.69c-.18.86,0,7.38,0,7.63s-3.42,1-4.49,3.63c-.59,1.43-4,.37-5.41,1.29s-2.3,3.67-2,4.1,1.46-3.07,4.72-3.2c1.43-.05,3-.22,3.34-.65s2.22-2.65,3.37-3.08,1.85-.78,1.92-1.27,0-7.77-.34-8.45S90.24,3.24,90.15,3.69Z"/></g></g></svg>