<svg xmlns="http://www.w3.org/2000/svg" viewBox="0 0 81.15 78.14"><defs><style>.cls-1{fill:#330b55;}.cls-2{fill:#fb8e21;}.cls-3{fill:#ffad42;}.cls-4{fill:#4f352d;}.cls-5{opacity:0.15;}</style></defs><g id="Layer_2" data-name="Layer 2"><g id="Layer_1-2" data-name="Layer 1"><polygon class="cls-1" points="66.91 20.43 19.39 68.63 13.5 62.66 61.01 14.45 66.91 20.43"/><polygon class="cls-2" points="69.62 17.68 66.91 20.43 61.01 14.45 63.72 11.7 69.62 17.68"/><path class="cls-3" d="M63.72,11.7l5.9,6S75,11.93,81.15,13.49L67.85,0C69.39,6.26,63.72,11.7,63.72,11.7Z"/><path class="cls-1" d="M1.76,78.14,9,72.42l2,.41a6.59,6.59,0,0,0,6-1.85l2.32-2.35-5.9-6L0,76.36Z"/><path class="cls-4" d="M21.81,56.21c.25.25-.28,1.2-1.19,2.12s-1.84,1.46-2.09,1.21.28-1.2,1.19-2.12S21.56,56,21.81,56.21Z"/><path class="cls-4" d="M29,48.88c.25.25-.28,1.2-1.19,2.12S26,52.46,25.76,52.21,26,51,27,50.08,28.79,48.62,29,48.88Z"/><path class="cls-4" d="M36.27,41.55c.24.25-.29,1.2-1.19,2.12s-1.85,1.46-2.1,1.21.29-1.21,1.19-2.13S36,41.29,36.27,41.55Z"/><path class="cls-4" d="M43.49,34.21c.25.26-.28,1.21-1.19,2.13s-1.84,1.46-2.09,1.2.28-1.2,1.19-2.12S43.24,34,43.49,34.21Z"/><path class="cls-1" d="M50.08,26.88c.25.26.35,1.21-.55,2.13s-1.85,1.46-2.09,1.2.28-1.2,1.18-2.12S49.83,26.63,50.08,26.88Z"/><path class="cls-4" d="M57.94,19.55c.25.25-.28,1.2-1.19,2.12s-1.84,1.46-2.09,1.21.28-1.2,1.19-2.12S57.69,19.3,57.94,19.55Z"/><path class="cls-5" d="M9.65,72.54l1.42.29a6.59,6.59,0,0,0,6-1.85l2.32-2.35,47.51-48.2,2.71-2.75h0S75,11.93,81.15,13.49L74.5,6.75Z"/></g></g></svg>