<svg xmlns="http://www.w3.org/2000/svg" viewBox="0 0 680.59 1759.9"><defs><style>.cls-1{fill:#7f4f26;}.cls-2{fill:#330b55;}.cls-3{fill:none;}.cls-4{fill:#44352e;}.cls-5{opacity:0.15;isolation:isolate;}.cls-6{fill:#aa6933;}.cls-7{fill:#fff;}</style></defs><g id="Layer_2" data-name="Layer 2"><g id="Object"><g id="Jazz"><g id="path984845"><path class="cls-1" d="M272.68,128.63c-4.83.06-9.63,1.94-11.86,6.5-3.1,6.35-3.72,17.31.63,26.54s13.65,4.05,13.65,4.05l1.11-12.91,22.48,1.94V143.21l-21.62-.47,1.14-13.39a20.27,20.27,0,0,0-5.53-.72Zm135.22,0a20.27,20.27,0,0,0-5.53.72l1.15,13.39-21.63.47v11.54l22.49-1.94,1.1,12.91s9.31,5.19,13.66-4.05,3.73-20.19.62-26.54c-2.23-4.56-7-6.44-11.86-6.5Z"/></g><g id="path984842"><path class="cls-1" d="M277.44,80.73c-4.48,0-8.95,1.94-11,6.5-2.89,6.35-3.46,17.31.58,26.54s12.69,4,12.69,4l1-12.92,20.9,1.95V95.31l-20.1-.47,1.06-13.39A17.22,17.22,0,0,0,277.44,80.73Zm125.7,0a17.26,17.26,0,0,0-5.14.72l1.07,13.39L379,95.31v11.54l20.9-1.95,1,12.92s8.66,5.19,12.7-4,3.46-20.19.58-26.54c-2.08-4.56-6.54-6.45-11-6.5Z"/></g><g id="path961953"><path class="cls-2" d="M300.79,652.82S283,706.27,240.22,727.65,108.37,770.41,97.69,852.36s-21.38,156.78-21.38,156.78,17.81-35.63,57-7.13,33.34,75.35-5.86,107.42-89.08,35.62-89.08,35.62-56.23,125.08-32.57,246.63c24.83,127.57,128.47,212.51,295,212.51h79c166.51,0,270.15-84.94,295-212.51,23.66-121.55-32.58-246.63-32.58-246.63s-49.88-3.55-89.08-35.62-45.05-78.91-5.85-107.42,57,7.13,57,7.13-10.69-74.82-21.38-156.78S483.12,749,440.36,727.65s-60.57-74.83-60.57-74.83h-79Z"/></g><g id="path970906"><path class="cls-3" d="M279.09,724.52a126.28,126.28,0,0,1-30,20.87c-23.94,12-55.42,22.17-81.58,38.68s-45.69,36.66-50.15,70.85C109.26,917,104.62,949,101.16,973.61c13.52-1,28.49,1.2,43.83,12.36,24.16,17.57,36.56,44,34.59,69.92s-16.67,50.17-39.55,68.9c-35.7,29.2-70.56,35.38-86.47,37.47-5.63,13.4-49,119.25-28.27,225.65,21.41,110,102.1,184.36,240.24,195Zm122.4,0L415.06,1583c138.14-10.69,218.83-85.08,240.24-195,20.71-106.4-22.67-212.26-28.29-225.65-15.92-2.09-50.76-8.28-86.45-37.47-22.88-18.73-37.57-43-39.54-68.9s10.42-52.35,34.58-69.92c15.34-11.16,30.31-13.34,43.84-12.36C576,949,571.31,917,563.22,854.92c-4.46-34.19-24-54.35-50.15-70.85s-57.64-26.71-81.58-38.68a126.6,126.6,0,0,1-30-20.86Z"/></g><g id="rect968822"><path class="cls-4" d="M299.54,209.46h81.51L398.67,912H281.91Z"/></g><g id="path970497"><path class="cls-4" d="M224.15,999.33c-21.49-.18-40.91,24.64-35.33,65,7,50.63,53.23,117,15.83,148.91s-61.24,16.41-62.77-13.81,12.35-27.37,24.2-24,26.14-.44,11-16.08-25.34-12.91-38.39,3.72-8.78,57.05,16.16,76.62,71.89,7,80.81-41.34-5.25-68.6-20.67-101.67-24-57-6.9-74.73,25.59-2.48,25.34,12.9c-8.28,26.29,1.28,45.61,14.73,22.31s18.88-35.69-7.55-52.67a30.88,30.88,0,0,0-16.47-5.17Zm232.28,0A30.85,30.85,0,0,0,440,1004.5c-26.43,17-21,29.38-7.55,52.67s23,4,14.73-22.31c-.26-15.38,8.21-30.62,25.34-12.9s8.52,41.67-6.9,74.73S436,1150,444.91,1198.36s55.88,60.92,80.81,41.34,29.21-60,16.16-76.62-23.25-19.36-38.38-3.72-.85,19.46,11,16.08,25.74-6.24,24.21,24-25.38,45.72-62.78,13.81,8.83-98.28,15.83-148.91c5.58-40.35-13.83-65.16-35.33-65Z"/></g><g id="path970717"><path class="cls-4" d="M340.3,1414c-59.59,0-62.43,16.93-68.1,33.86s17,43.53,42.56,94.32,8.51,111.25,2.84,166.88,22.7,50.78,22.7,50.78,28.37,4.84,22.7-50.78-22.71-116.09,2.83-166.88,48.23-77.39,42.56-94.32S399.88,1414,340.3,1414Z"/></g><g id="rect970824"><rect class="cls-4" x="267.6" y="1145.2" width="145.39" height="15.42"/></g><g id="path972257" class="cls-5"><path d="M661.09,1199.2C620,1240,558.93,1292.47,468.24,1356.68c-177.64,125.76-367.53,76.53-461.78,38,25.87,125.88,129.14,209.5,294.33,209.5h79c166.51,0,270.16-84.94,295-212.51C688.76,1319.83,674.82,1247,661.09,1199.2Z"/></g><g id="rect977128"><path class="cls-6" d="M305.05,50.35h70.49c9.15,0,14.75,19.41,16.52,43.37l6.61,89.49c1.77,24-8.31,29-18.63,29H300.55c-10.33,0-20.4-5.08-18.64-29l6.61-89.49c1.77-24,7.37-43.37,16.53-43.37Z"/></g><g id="rect977286"><path class="cls-1" d="M305.05,50.35c-5.48,0-9.69,7-12.56,17.68a16.47,16.47,0,0,0,12.56,5.77h70.49A16.49,16.49,0,0,0,388.1,68c-2.87-10.72-7.08-17.68-12.56-17.68Z"/></g><g id="rect972481"><rect class="cls-6" x="288.52" width="103.54" height="61.68" rx="16.52"/></g><g id="path984880"><path class="cls-7" d="M307.27,1434.11a2.76,2.76,0,0,1-2.75-2.58l-18.47-278.17a2.09,2.09,0,0,1,0-.25L311.44,95.82A2.76,2.76,0,1,1,317,96L291.56,1153.12,310,1431.17a2.75,2.75,0,0,1-2.57,2.93Z"/></g><g id="path986249"><path class="cls-7" d="M330.12,1434.11a2.77,2.77,0,0,1-2.76-2.66l-10.07-278.17v-.13L327.68,148.09a2.78,2.78,0,0,1,2.78-2.73,2.75,2.75,0,0,1,2.73,2.79l-10.38,1005,10.07,278.11a2.77,2.77,0,0,1-2.66,2.86Z"/></g><g id="path986426"><path class="cls-7" d="M373.74,1434.11h-.19a2.75,2.75,0,0,1-2.57-2.93l18.46-278.05L364.05,96a2.77,2.77,0,0,1,2.69-2.83,2.74,2.74,0,0,1,2.83,2.7L395,1153.11v.25l-18.47,278.17A2.76,2.76,0,0,1,373.74,1434.11Z"/></g><g id="path986428"><path class="cls-7" d="M350.89,1434.11h-.11a2.76,2.76,0,0,1-2.65-2.86l10.07-278.11L347.81,149a2.76,2.76,0,0,1,5.52-.05l10.39,1004.24a.49.49,0,0,1,0,.12l-10.07,278.18A2.76,2.76,0,0,1,350.89,1434.11Z"/></g></g></g></g></svg>